<mxfile host="app.diagrams.net" modified="2024-04-22T09:30:56.881Z" agent="Mozilla/5.0 (Windows NT 10.0; Win64; x64) AppleWebKit/537.36 (KHTML, like Gecko) Chrome/124.0.0.0 Safari/537.36" etag="XCRolcQn_RjSI838Zo9u" version="24.2.7" type="google">
  <diagram name="Page-1" id="BjbsquuiyV-xXKgkM7xm">
    <mxGraphModel grid="1" page="1" gridSize="10" guides="1" tooltips="1" connect="1" arrows="1" fold="1" pageScale="1" pageWidth="850" pageHeight="1100" math="0" shadow="0">
      <root>
        <mxCell id="0" />
        <mxCell id="1" parent="0" />
        <mxCell id="D5EDKLbeiEwIny6HZ1ge-143" value="" style="rounded=1;whiteSpace=wrap;html=1;" vertex="1" parent="1">
          <mxGeometry x="990" y="555" width="130" height="60" as="geometry" />
        </mxCell>
        <mxCell id="D5EDKLbeiEwIny6HZ1ge-144" value="RabbitMQ" style="text;html=1;align=center;verticalAlign=middle;whiteSpace=wrap;rounded=0;rotation=-90;" vertex="1" parent="1">
          <mxGeometry x="930" y="570" width="100" height="30" as="geometry" />
        </mxCell>
        <mxCell id="D5EDKLbeiEwIny6HZ1ge-134" value="" style="rounded=1;whiteSpace=wrap;html=1;" vertex="1" parent="1">
          <mxGeometry x="910" y="235" width="710" height="60" as="geometry" />
        </mxCell>
        <mxCell id="D5EDKLbeiEwIny6HZ1ge-1" value="" style="rounded=1;whiteSpace=wrap;html=1;" vertex="1" parent="1">
          <mxGeometry x="80" y="80" width="250" height="190" as="geometry" />
        </mxCell>
        <mxCell id="D5EDKLbeiEwIny6HZ1ge-2" value="my best server" style="rounded=0;whiteSpace=wrap;html=1;" vertex="1" parent="1">
          <mxGeometry x="145" y="180" width="120" height="20" as="geometry" />
        </mxCell>
        <mxCell id="D5EDKLbeiEwIny6HZ1ge-3" value="My PC" style="text;html=1;align=center;verticalAlign=middle;whiteSpace=wrap;rounded=0;" vertex="1" parent="1">
          <mxGeometry x="80" y="50" width="250" height="30" as="geometry" />
        </mxCell>
        <mxCell id="D5EDKLbeiEwIny6HZ1ge-4" value="NodeJS" style="rounded=1;whiteSpace=wrap;html=1;" vertex="1" parent="1">
          <mxGeometry x="90" y="110" width="70" height="30" as="geometry" />
        </mxCell>
        <mxCell id="D5EDKLbeiEwIny6HZ1ge-5" value="NPM" style="rounded=1;whiteSpace=wrap;html=1;" vertex="1" parent="1">
          <mxGeometry x="170" y="110" width="70" height="30" as="geometry" />
        </mxCell>
        <mxCell id="D5EDKLbeiEwIny6HZ1ge-6" value="MongoDB" style="rounded=1;whiteSpace=wrap;html=1;" vertex="1" parent="1">
          <mxGeometry x="250" y="110" width="70" height="30" as="geometry" />
        </mxCell>
        <mxCell id="D5EDKLbeiEwIny6HZ1ge-7" value="" style="endArrow=none;dashed=1;html=1;dashPattern=1 3;strokeWidth=2;rounded=0;exitX=0.5;exitY=1;exitDx=0;exitDy=0;entryX=0.5;entryY=0;entryDx=0;entryDy=0;" edge="1" parent="1" source="D5EDKLbeiEwIny6HZ1ge-4" target="D5EDKLbeiEwIny6HZ1ge-2">
          <mxGeometry width="50" height="50" relative="1" as="geometry">
            <mxPoint x="40" y="170" as="sourcePoint" />
            <mxPoint x="160" y="280" as="targetPoint" />
            <Array as="points">
              <mxPoint x="125" y="160" />
              <mxPoint x="205" y="160" />
            </Array>
          </mxGeometry>
        </mxCell>
        <mxCell id="D5EDKLbeiEwIny6HZ1ge-8" value="" style="endArrow=none;dashed=1;html=1;dashPattern=1 3;strokeWidth=2;rounded=0;exitX=0.5;exitY=1;exitDx=0;exitDy=0;entryX=0.5;entryY=0;entryDx=0;entryDy=0;" edge="1" parent="1" source="D5EDKLbeiEwIny6HZ1ge-6" target="D5EDKLbeiEwIny6HZ1ge-2">
          <mxGeometry width="50" height="50" relative="1" as="geometry">
            <mxPoint x="135" y="150" as="sourcePoint" />
            <mxPoint x="215" y="200" as="targetPoint" />
            <Array as="points">
              <mxPoint x="285" y="160" />
              <mxPoint x="205" y="160" />
            </Array>
          </mxGeometry>
        </mxCell>
        <mxCell id="D5EDKLbeiEwIny6HZ1ge-9" value="" style="endArrow=none;dashed=1;html=1;dashPattern=1 3;strokeWidth=2;rounded=0;exitX=0.5;exitY=1;exitDx=0;exitDy=0;entryX=0.5;entryY=0;entryDx=0;entryDy=0;" edge="1" parent="1" source="D5EDKLbeiEwIny6HZ1ge-5" target="D5EDKLbeiEwIny6HZ1ge-2">
          <mxGeometry width="50" height="50" relative="1" as="geometry">
            <mxPoint x="295" y="150" as="sourcePoint" />
            <mxPoint x="215" y="200" as="targetPoint" />
            <Array as="points" />
          </mxGeometry>
        </mxCell>
        <mxCell id="D5EDKLbeiEwIny6HZ1ge-10" value="port: 8080" style="rounded=1;whiteSpace=wrap;html=1;" vertex="1" parent="1">
          <mxGeometry x="165" y="230" width="80" height="30" as="geometry" />
        </mxCell>
        <mxCell id="D5EDKLbeiEwIny6HZ1ge-11" value="" style="endArrow=none;dashed=1;html=1;dashPattern=1 3;strokeWidth=2;rounded=0;exitX=0.5;exitY=0;exitDx=0;exitDy=0;entryX=0.5;entryY=1;entryDx=0;entryDy=0;" edge="1" parent="1" source="D5EDKLbeiEwIny6HZ1ge-10" target="D5EDKLbeiEwIny6HZ1ge-2">
          <mxGeometry width="50" height="50" relative="1" as="geometry">
            <mxPoint x="340" y="240" as="sourcePoint" />
            <mxPoint x="390" y="190" as="targetPoint" />
            <Array as="points" />
          </mxGeometry>
        </mxCell>
        <mxCell id="D5EDKLbeiEwIny6HZ1ge-12" value="" style="rounded=1;whiteSpace=wrap;html=1;" vertex="1" parent="1">
          <mxGeometry x="360" y="80" width="100" height="190" as="geometry" />
        </mxCell>
        <mxCell id="D5EDKLbeiEwIny6HZ1ge-14" value="Other PC" style="text;html=1;align=center;verticalAlign=middle;whiteSpace=wrap;rounded=0;" vertex="1" parent="1">
          <mxGeometry x="360" y="50" width="100" height="30" as="geometry" />
        </mxCell>
        <mxCell id="D5EDKLbeiEwIny6HZ1ge-21" value="port: 8080" style="rounded=1;whiteSpace=wrap;html=1;" vertex="1" parent="1">
          <mxGeometry x="370" y="230" width="80" height="30" as="geometry" />
        </mxCell>
        <mxCell id="D5EDKLbeiEwIny6HZ1ge-23" value="" style="shape=flexArrow;endArrow=classic;html=1;rounded=0;exitX=1;exitY=0.5;exitDx=0;exitDy=0;entryX=0;entryY=0.5;entryDx=0;entryDy=0;" edge="1" parent="1" source="D5EDKLbeiEwIny6HZ1ge-1" target="D5EDKLbeiEwIny6HZ1ge-12">
          <mxGeometry width="50" height="50" relative="1" as="geometry">
            <mxPoint x="340" y="320" as="sourcePoint" />
            <mxPoint x="390" y="270" as="targetPoint" />
          </mxGeometry>
        </mxCell>
        <mxCell id="D5EDKLbeiEwIny6HZ1ge-24" value="" style="rounded=1;whiteSpace=wrap;html=1;" vertex="1" parent="1">
          <mxGeometry x="50" y="400" width="290" height="200" as="geometry" />
        </mxCell>
        <mxCell id="D5EDKLbeiEwIny6HZ1ge-25" value="my best server" style="rounded=0;whiteSpace=wrap;html=1;" vertex="1" parent="1">
          <mxGeometry x="135" y="500" width="120" height="20" as="geometry" />
        </mxCell>
        <mxCell id="D5EDKLbeiEwIny6HZ1ge-26" value="My PC" style="text;html=1;align=center;verticalAlign=middle;whiteSpace=wrap;rounded=0;" vertex="1" parent="1">
          <mxGeometry x="50" y="370" width="290" height="30" as="geometry" />
        </mxCell>
        <mxCell id="D5EDKLbeiEwIny6HZ1ge-27" value="NodeJS" style="rounded=1;whiteSpace=wrap;html=1;" vertex="1" parent="1">
          <mxGeometry x="80" y="440" width="70" height="30" as="geometry" />
        </mxCell>
        <mxCell id="D5EDKLbeiEwIny6HZ1ge-28" value="NPM" style="rounded=1;whiteSpace=wrap;html=1;" vertex="1" parent="1">
          <mxGeometry x="160" y="440" width="70" height="30" as="geometry" />
        </mxCell>
        <mxCell id="D5EDKLbeiEwIny6HZ1ge-29" value="MongoDB" style="rounded=1;whiteSpace=wrap;html=1;" vertex="1" parent="1">
          <mxGeometry x="240" y="440" width="70" height="30" as="geometry" />
        </mxCell>
        <mxCell id="D5EDKLbeiEwIny6HZ1ge-30" value="" style="endArrow=none;dashed=1;html=1;dashPattern=1 3;strokeWidth=2;rounded=0;exitX=0.5;exitY=1;exitDx=0;exitDy=0;entryX=0.5;entryY=0;entryDx=0;entryDy=0;" edge="1" parent="1" source="D5EDKLbeiEwIny6HZ1ge-27" target="D5EDKLbeiEwIny6HZ1ge-25">
          <mxGeometry width="50" height="50" relative="1" as="geometry">
            <mxPoint x="30" y="490" as="sourcePoint" />
            <mxPoint x="150" y="600" as="targetPoint" />
            <Array as="points">
              <mxPoint x="115" y="480" />
              <mxPoint x="195" y="480" />
            </Array>
          </mxGeometry>
        </mxCell>
        <mxCell id="D5EDKLbeiEwIny6HZ1ge-31" value="" style="endArrow=none;dashed=1;html=1;dashPattern=1 3;strokeWidth=2;rounded=0;exitX=0.5;exitY=1;exitDx=0;exitDy=0;entryX=0.5;entryY=0;entryDx=0;entryDy=0;" edge="1" parent="1" source="D5EDKLbeiEwIny6HZ1ge-29" target="D5EDKLbeiEwIny6HZ1ge-25">
          <mxGeometry width="50" height="50" relative="1" as="geometry">
            <mxPoint x="125" y="470" as="sourcePoint" />
            <mxPoint x="205" y="520" as="targetPoint" />
            <Array as="points">
              <mxPoint x="275" y="480" />
              <mxPoint x="195" y="480" />
            </Array>
          </mxGeometry>
        </mxCell>
        <mxCell id="D5EDKLbeiEwIny6HZ1ge-32" value="" style="endArrow=none;dashed=1;html=1;dashPattern=1 3;strokeWidth=2;rounded=0;exitX=0.5;exitY=1;exitDx=0;exitDy=0;entryX=0.5;entryY=0;entryDx=0;entryDy=0;" edge="1" parent="1" source="D5EDKLbeiEwIny6HZ1ge-28" target="D5EDKLbeiEwIny6HZ1ge-25">
          <mxGeometry width="50" height="50" relative="1" as="geometry">
            <mxPoint x="285" y="470" as="sourcePoint" />
            <mxPoint x="205" y="520" as="targetPoint" />
            <Array as="points" />
          </mxGeometry>
        </mxCell>
        <mxCell id="D5EDKLbeiEwIny6HZ1ge-33" value="port: 8080" style="rounded=1;whiteSpace=wrap;html=1;" vertex="1" parent="1">
          <mxGeometry x="155" y="540" width="80" height="30" as="geometry" />
        </mxCell>
        <mxCell id="D5EDKLbeiEwIny6HZ1ge-34" value="" style="endArrow=none;dashed=1;html=1;dashPattern=1 3;strokeWidth=2;rounded=0;exitX=0.5;exitY=0;exitDx=0;exitDy=0;entryX=0.5;entryY=1;entryDx=0;entryDy=0;" edge="1" parent="1" source="D5EDKLbeiEwIny6HZ1ge-33" target="D5EDKLbeiEwIny6HZ1ge-25">
          <mxGeometry width="50" height="50" relative="1" as="geometry">
            <mxPoint x="330" y="560" as="sourcePoint" />
            <mxPoint x="380" y="510" as="targetPoint" />
            <Array as="points" />
          </mxGeometry>
        </mxCell>
        <mxCell id="D5EDKLbeiEwIny6HZ1ge-40" value="Docker" style="ellipse;shape=cloud;whiteSpace=wrap;html=1;" vertex="1" parent="1">
          <mxGeometry x="350" y="470" width="120" height="80" as="geometry" />
        </mxCell>
        <mxCell id="D5EDKLbeiEwIny6HZ1ge-42" value="" style="verticalLabelPosition=bottom;verticalAlign=top;html=1;shape=mxgraph.basic.rounded_frame;dx=10;whiteSpace=wrap;fillColor=#dae8fc;strokeColor=#6c8ebf;" vertex="1" parent="1">
          <mxGeometry x="60" y="415" width="270" height="175" as="geometry" />
        </mxCell>
        <mxCell id="D5EDKLbeiEwIny6HZ1ge-43" value="" style="endArrow=classic;html=1;rounded=0;exitX=1;exitY=0.5;exitDx=0;exitDy=0;exitPerimeter=0;entryX=0.07;entryY=0.4;entryDx=0;entryDy=0;entryPerimeter=0;" edge="1" parent="1" source="D5EDKLbeiEwIny6HZ1ge-42" target="D5EDKLbeiEwIny6HZ1ge-40">
          <mxGeometry width="50" height="50" relative="1" as="geometry">
            <mxPoint x="340" y="470" as="sourcePoint" />
            <mxPoint x="390" y="420" as="targetPoint" />
          </mxGeometry>
        </mxCell>
        <mxCell id="D5EDKLbeiEwIny6HZ1ge-56" value="" style="group" connectable="0" vertex="1" parent="1">
          <mxGeometry x="510" y="290" width="290" height="190" as="geometry" />
        </mxCell>
        <mxCell id="D5EDKLbeiEwIny6HZ1ge-35" value="" style="rounded=1;whiteSpace=wrap;html=1;" vertex="1" parent="D5EDKLbeiEwIny6HZ1ge-56">
          <mxGeometry width="290" height="190" as="geometry" />
        </mxCell>
        <mxCell id="D5EDKLbeiEwIny6HZ1ge-45" value="my best server" style="rounded=0;whiteSpace=wrap;html=1;" vertex="1" parent="D5EDKLbeiEwIny6HZ1ge-56">
          <mxGeometry x="85" y="92.5" width="120" height="20" as="geometry" />
        </mxCell>
        <mxCell id="D5EDKLbeiEwIny6HZ1ge-46" value="NodeJS" style="rounded=1;whiteSpace=wrap;html=1;" vertex="1" parent="D5EDKLbeiEwIny6HZ1ge-56">
          <mxGeometry x="30" y="32.5" width="70" height="30" as="geometry" />
        </mxCell>
        <mxCell id="D5EDKLbeiEwIny6HZ1ge-47" value="NPM" style="rounded=1;whiteSpace=wrap;html=1;" vertex="1" parent="D5EDKLbeiEwIny6HZ1ge-56">
          <mxGeometry x="110" y="32.5" width="70" height="30" as="geometry" />
        </mxCell>
        <mxCell id="D5EDKLbeiEwIny6HZ1ge-48" value="MongoDB" style="rounded=1;whiteSpace=wrap;html=1;" vertex="1" parent="D5EDKLbeiEwIny6HZ1ge-56">
          <mxGeometry x="190" y="32.5" width="70" height="30" as="geometry" />
        </mxCell>
        <mxCell id="D5EDKLbeiEwIny6HZ1ge-49" value="" style="endArrow=none;dashed=1;html=1;dashPattern=1 3;strokeWidth=2;rounded=0;exitX=0.5;exitY=1;exitDx=0;exitDy=0;entryX=0.5;entryY=0;entryDx=0;entryDy=0;" edge="1" parent="D5EDKLbeiEwIny6HZ1ge-56" source="D5EDKLbeiEwIny6HZ1ge-46" target="D5EDKLbeiEwIny6HZ1ge-45">
          <mxGeometry width="50" height="50" relative="1" as="geometry">
            <mxPoint x="-20" y="82.5" as="sourcePoint" />
            <mxPoint x="100" y="192.5" as="targetPoint" />
            <Array as="points">
              <mxPoint x="65" y="72.5" />
              <mxPoint x="145" y="72.5" />
            </Array>
          </mxGeometry>
        </mxCell>
        <mxCell id="D5EDKLbeiEwIny6HZ1ge-50" value="" style="endArrow=none;dashed=1;html=1;dashPattern=1 3;strokeWidth=2;rounded=0;exitX=0.5;exitY=1;exitDx=0;exitDy=0;entryX=0.5;entryY=0;entryDx=0;entryDy=0;" edge="1" parent="D5EDKLbeiEwIny6HZ1ge-56" source="D5EDKLbeiEwIny6HZ1ge-48" target="D5EDKLbeiEwIny6HZ1ge-45">
          <mxGeometry width="50" height="50" relative="1" as="geometry">
            <mxPoint x="75" y="62.5" as="sourcePoint" />
            <mxPoint x="155" y="112.5" as="targetPoint" />
            <Array as="points">
              <mxPoint x="225" y="72.5" />
              <mxPoint x="145" y="72.5" />
            </Array>
          </mxGeometry>
        </mxCell>
        <mxCell id="D5EDKLbeiEwIny6HZ1ge-51" value="" style="endArrow=none;dashed=1;html=1;dashPattern=1 3;strokeWidth=2;rounded=0;exitX=0.5;exitY=1;exitDx=0;exitDy=0;entryX=0.5;entryY=0;entryDx=0;entryDy=0;" edge="1" parent="D5EDKLbeiEwIny6HZ1ge-56" source="D5EDKLbeiEwIny6HZ1ge-47" target="D5EDKLbeiEwIny6HZ1ge-45">
          <mxGeometry width="50" height="50" relative="1" as="geometry">
            <mxPoint x="235" y="62.5" as="sourcePoint" />
            <mxPoint x="155" y="112.5" as="targetPoint" />
            <Array as="points" />
          </mxGeometry>
        </mxCell>
        <mxCell id="D5EDKLbeiEwIny6HZ1ge-52" value="port: 8080" style="rounded=1;whiteSpace=wrap;html=1;" vertex="1" parent="D5EDKLbeiEwIny6HZ1ge-56">
          <mxGeometry x="105" y="132.5" width="80" height="30" as="geometry" />
        </mxCell>
        <mxCell id="D5EDKLbeiEwIny6HZ1ge-53" value="" style="endArrow=none;dashed=1;html=1;dashPattern=1 3;strokeWidth=2;rounded=0;exitX=0.5;exitY=0;exitDx=0;exitDy=0;entryX=0.5;entryY=1;entryDx=0;entryDy=0;" edge="1" parent="D5EDKLbeiEwIny6HZ1ge-56" source="D5EDKLbeiEwIny6HZ1ge-52" target="D5EDKLbeiEwIny6HZ1ge-45">
          <mxGeometry width="50" height="50" relative="1" as="geometry">
            <mxPoint x="280" y="152.5" as="sourcePoint" />
            <mxPoint x="330" y="102.5" as="targetPoint" />
            <Array as="points" />
          </mxGeometry>
        </mxCell>
        <mxCell id="D5EDKLbeiEwIny6HZ1ge-54" value="" style="verticalLabelPosition=bottom;verticalAlign=top;html=1;shape=mxgraph.basic.rounded_frame;dx=10;whiteSpace=wrap;fillColor=#dae8fc;strokeColor=#6c8ebf;" vertex="1" parent="D5EDKLbeiEwIny6HZ1ge-56">
          <mxGeometry x="10" y="7.5" width="270" height="175" as="geometry" />
        </mxCell>
        <mxCell id="D5EDKLbeiEwIny6HZ1ge-57" value="" style="group" connectable="0" vertex="1" parent="1">
          <mxGeometry x="510" y="510" width="290" height="190" as="geometry" />
        </mxCell>
        <mxCell id="D5EDKLbeiEwIny6HZ1ge-58" value="" style="rounded=1;whiteSpace=wrap;html=1;" vertex="1" parent="D5EDKLbeiEwIny6HZ1ge-57">
          <mxGeometry width="290" height="190" as="geometry" />
        </mxCell>
        <mxCell id="D5EDKLbeiEwIny6HZ1ge-59" value="my best server" style="rounded=0;whiteSpace=wrap;html=1;" vertex="1" parent="D5EDKLbeiEwIny6HZ1ge-57">
          <mxGeometry x="85" y="92.5" width="120" height="20" as="geometry" />
        </mxCell>
        <mxCell id="D5EDKLbeiEwIny6HZ1ge-60" value="NodeJS" style="rounded=1;whiteSpace=wrap;html=1;" vertex="1" parent="D5EDKLbeiEwIny6HZ1ge-57">
          <mxGeometry x="30" y="32.5" width="70" height="30" as="geometry" />
        </mxCell>
        <mxCell id="D5EDKLbeiEwIny6HZ1ge-61" value="NPM" style="rounded=1;whiteSpace=wrap;html=1;" vertex="1" parent="D5EDKLbeiEwIny6HZ1ge-57">
          <mxGeometry x="110" y="32.5" width="70" height="30" as="geometry" />
        </mxCell>
        <mxCell id="D5EDKLbeiEwIny6HZ1ge-62" value="MongoDB" style="rounded=1;whiteSpace=wrap;html=1;" vertex="1" parent="D5EDKLbeiEwIny6HZ1ge-57">
          <mxGeometry x="190" y="32.5" width="70" height="30" as="geometry" />
        </mxCell>
        <mxCell id="D5EDKLbeiEwIny6HZ1ge-63" value="" style="endArrow=none;dashed=1;html=1;dashPattern=1 3;strokeWidth=2;rounded=0;exitX=0.5;exitY=1;exitDx=0;exitDy=0;entryX=0.5;entryY=0;entryDx=0;entryDy=0;" edge="1" parent="D5EDKLbeiEwIny6HZ1ge-57" source="D5EDKLbeiEwIny6HZ1ge-60" target="D5EDKLbeiEwIny6HZ1ge-59">
          <mxGeometry width="50" height="50" relative="1" as="geometry">
            <mxPoint x="-20" y="82.5" as="sourcePoint" />
            <mxPoint x="100" y="192.5" as="targetPoint" />
            <Array as="points">
              <mxPoint x="65" y="72.5" />
              <mxPoint x="145" y="72.5" />
            </Array>
          </mxGeometry>
        </mxCell>
        <mxCell id="D5EDKLbeiEwIny6HZ1ge-64" value="" style="endArrow=none;dashed=1;html=1;dashPattern=1 3;strokeWidth=2;rounded=0;exitX=0.5;exitY=1;exitDx=0;exitDy=0;entryX=0.5;entryY=0;entryDx=0;entryDy=0;" edge="1" parent="D5EDKLbeiEwIny6HZ1ge-57" source="D5EDKLbeiEwIny6HZ1ge-62" target="D5EDKLbeiEwIny6HZ1ge-59">
          <mxGeometry width="50" height="50" relative="1" as="geometry">
            <mxPoint x="75" y="62.5" as="sourcePoint" />
            <mxPoint x="155" y="112.5" as="targetPoint" />
            <Array as="points">
              <mxPoint x="225" y="72.5" />
              <mxPoint x="145" y="72.5" />
            </Array>
          </mxGeometry>
        </mxCell>
        <mxCell id="D5EDKLbeiEwIny6HZ1ge-65" value="" style="endArrow=none;dashed=1;html=1;dashPattern=1 3;strokeWidth=2;rounded=0;exitX=0.5;exitY=1;exitDx=0;exitDy=0;entryX=0.5;entryY=0;entryDx=0;entryDy=0;" edge="1" parent="D5EDKLbeiEwIny6HZ1ge-57" source="D5EDKLbeiEwIny6HZ1ge-61" target="D5EDKLbeiEwIny6HZ1ge-59">
          <mxGeometry width="50" height="50" relative="1" as="geometry">
            <mxPoint x="235" y="62.5" as="sourcePoint" />
            <mxPoint x="155" y="112.5" as="targetPoint" />
            <Array as="points" />
          </mxGeometry>
        </mxCell>
        <mxCell id="D5EDKLbeiEwIny6HZ1ge-66" value="port: 8080" style="rounded=1;whiteSpace=wrap;html=1;" vertex="1" parent="D5EDKLbeiEwIny6HZ1ge-57">
          <mxGeometry x="105" y="132.5" width="80" height="30" as="geometry" />
        </mxCell>
        <mxCell id="D5EDKLbeiEwIny6HZ1ge-67" value="" style="endArrow=none;dashed=1;html=1;dashPattern=1 3;strokeWidth=2;rounded=0;exitX=0.5;exitY=0;exitDx=0;exitDy=0;entryX=0.5;entryY=1;entryDx=0;entryDy=0;" edge="1" parent="D5EDKLbeiEwIny6HZ1ge-57" source="D5EDKLbeiEwIny6HZ1ge-66" target="D5EDKLbeiEwIny6HZ1ge-59">
          <mxGeometry width="50" height="50" relative="1" as="geometry">
            <mxPoint x="280" y="152.5" as="sourcePoint" />
            <mxPoint x="330" y="102.5" as="targetPoint" />
            <Array as="points" />
          </mxGeometry>
        </mxCell>
        <mxCell id="D5EDKLbeiEwIny6HZ1ge-68" value="" style="verticalLabelPosition=bottom;verticalAlign=top;html=1;shape=mxgraph.basic.rounded_frame;dx=10;whiteSpace=wrap;fillColor=#dae8fc;strokeColor=#6c8ebf;" vertex="1" parent="D5EDKLbeiEwIny6HZ1ge-57">
          <mxGeometry x="10" y="7.5" width="270" height="175" as="geometry" />
        </mxCell>
        <mxCell id="D5EDKLbeiEwIny6HZ1ge-69" value="" style="endArrow=classic;html=1;rounded=0;exitX=0.88;exitY=0.25;exitDx=0;exitDy=0;exitPerimeter=0;entryX=0;entryY=0.5;entryDx=0;entryDy=0;entryPerimeter=0;" edge="1" parent="1" source="D5EDKLbeiEwIny6HZ1ge-40" target="D5EDKLbeiEwIny6HZ1ge-54">
          <mxGeometry width="50" height="50" relative="1" as="geometry">
            <mxPoint x="410" y="440" as="sourcePoint" />
            <mxPoint x="460" y="390" as="targetPoint" />
          </mxGeometry>
        </mxCell>
        <mxCell id="D5EDKLbeiEwIny6HZ1ge-70" value="" style="endArrow=classic;html=1;rounded=0;exitX=0.8;exitY=0.8;exitDx=0;exitDy=0;exitPerimeter=0;entryX=0;entryY=0.5;entryDx=0;entryDy=0;entryPerimeter=0;" edge="1" parent="1" source="D5EDKLbeiEwIny6HZ1ge-40" target="D5EDKLbeiEwIny6HZ1ge-68">
          <mxGeometry width="50" height="50" relative="1" as="geometry">
            <mxPoint x="400" y="630" as="sourcePoint" />
            <mxPoint x="450" y="580" as="targetPoint" />
          </mxGeometry>
        </mxCell>
        <mxCell id="D5EDKLbeiEwIny6HZ1ge-94" value="" style="group" connectable="0" vertex="1" parent="1">
          <mxGeometry x="40" y="700" width="430" height="300" as="geometry" />
        </mxCell>
        <mxCell id="D5EDKLbeiEwIny6HZ1ge-72" value="" style="rounded=1;whiteSpace=wrap;html=1;" vertex="1" parent="D5EDKLbeiEwIny6HZ1ge-94">
          <mxGeometry width="430" height="300" as="geometry" />
        </mxCell>
        <mxCell id="D5EDKLbeiEwIny6HZ1ge-73" value="my best server" style="rounded=0;whiteSpace=wrap;html=1;" vertex="1" parent="D5EDKLbeiEwIny6HZ1ge-94">
          <mxGeometry x="85" y="202.5" width="120" height="20" as="geometry" />
        </mxCell>
        <mxCell id="D5EDKLbeiEwIny6HZ1ge-74" value="NodeJS" style="rounded=1;whiteSpace=wrap;html=1;" vertex="1" parent="D5EDKLbeiEwIny6HZ1ge-94">
          <mxGeometry x="30" y="142.5" width="70" height="30" as="geometry" />
        </mxCell>
        <mxCell id="D5EDKLbeiEwIny6HZ1ge-75" value="NPM" style="rounded=1;whiteSpace=wrap;html=1;" vertex="1" parent="D5EDKLbeiEwIny6HZ1ge-94">
          <mxGeometry x="110" y="142.5" width="70" height="30" as="geometry" />
        </mxCell>
        <mxCell id="D5EDKLbeiEwIny6HZ1ge-76" value="MongoDB" style="rounded=1;whiteSpace=wrap;html=1;" vertex="1" parent="D5EDKLbeiEwIny6HZ1ge-94">
          <mxGeometry x="190" y="142.5" width="70" height="30" as="geometry" />
        </mxCell>
        <mxCell id="D5EDKLbeiEwIny6HZ1ge-77" value="" style="endArrow=none;dashed=1;html=1;dashPattern=1 3;strokeWidth=2;rounded=0;exitX=0.5;exitY=1;exitDx=0;exitDy=0;entryX=0.5;entryY=0;entryDx=0;entryDy=0;" edge="1" parent="D5EDKLbeiEwIny6HZ1ge-94" source="D5EDKLbeiEwIny6HZ1ge-74" target="D5EDKLbeiEwIny6HZ1ge-73">
          <mxGeometry width="50" height="50" relative="1" as="geometry">
            <mxPoint x="-20" y="192.5" as="sourcePoint" />
            <mxPoint x="100" y="302.5" as="targetPoint" />
            <Array as="points">
              <mxPoint x="65" y="182.5" />
              <mxPoint x="145" y="182.5" />
            </Array>
          </mxGeometry>
        </mxCell>
        <mxCell id="D5EDKLbeiEwIny6HZ1ge-78" value="" style="endArrow=none;dashed=1;html=1;dashPattern=1 3;strokeWidth=2;rounded=0;exitX=0.5;exitY=1;exitDx=0;exitDy=0;entryX=0.5;entryY=0;entryDx=0;entryDy=0;" edge="1" parent="D5EDKLbeiEwIny6HZ1ge-94" source="D5EDKLbeiEwIny6HZ1ge-76" target="D5EDKLbeiEwIny6HZ1ge-73">
          <mxGeometry width="50" height="50" relative="1" as="geometry">
            <mxPoint x="75" y="172.5" as="sourcePoint" />
            <mxPoint x="155" y="222.5" as="targetPoint" />
            <Array as="points">
              <mxPoint x="225" y="182.5" />
              <mxPoint x="145" y="182.5" />
            </Array>
          </mxGeometry>
        </mxCell>
        <mxCell id="D5EDKLbeiEwIny6HZ1ge-79" value="" style="endArrow=none;dashed=1;html=1;dashPattern=1 3;strokeWidth=2;rounded=0;exitX=0.5;exitY=1;exitDx=0;exitDy=0;entryX=0.5;entryY=0;entryDx=0;entryDy=0;" edge="1" parent="D5EDKLbeiEwIny6HZ1ge-94" source="D5EDKLbeiEwIny6HZ1ge-75" target="D5EDKLbeiEwIny6HZ1ge-73">
          <mxGeometry width="50" height="50" relative="1" as="geometry">
            <mxPoint x="235" y="172.5" as="sourcePoint" />
            <mxPoint x="155" y="222.5" as="targetPoint" />
            <Array as="points" />
          </mxGeometry>
        </mxCell>
        <mxCell id="D5EDKLbeiEwIny6HZ1ge-80" value="port: 8080" style="rounded=1;whiteSpace=wrap;html=1;" vertex="1" parent="D5EDKLbeiEwIny6HZ1ge-94">
          <mxGeometry x="105" y="242.5" width="80" height="30" as="geometry" />
        </mxCell>
        <mxCell id="D5EDKLbeiEwIny6HZ1ge-81" value="" style="endArrow=none;dashed=1;html=1;dashPattern=1 3;strokeWidth=2;rounded=0;exitX=0.5;exitY=0;exitDx=0;exitDy=0;entryX=0.5;entryY=1;entryDx=0;entryDy=0;" edge="1" parent="D5EDKLbeiEwIny6HZ1ge-94" source="D5EDKLbeiEwIny6HZ1ge-80" target="D5EDKLbeiEwIny6HZ1ge-73">
          <mxGeometry width="50" height="50" relative="1" as="geometry">
            <mxPoint x="280" y="262.5" as="sourcePoint" />
            <mxPoint x="330" y="212.5" as="targetPoint" />
            <Array as="points" />
          </mxGeometry>
        </mxCell>
        <mxCell id="D5EDKLbeiEwIny6HZ1ge-82" value="" style="verticalLabelPosition=bottom;verticalAlign=top;html=1;shape=mxgraph.basic.rounded_frame;dx=10;whiteSpace=wrap;fillColor=#dae8fc;strokeColor=#6c8ebf;" vertex="1" parent="D5EDKLbeiEwIny6HZ1ge-94">
          <mxGeometry x="10" y="117.5" width="270" height="175" as="geometry" />
        </mxCell>
        <mxCell id="D5EDKLbeiEwIny6HZ1ge-83" value="process 1" style="rounded=0;whiteSpace=wrap;html=1;" vertex="1" parent="D5EDKLbeiEwIny6HZ1ge-94">
          <mxGeometry x="20" y="20" width="120" height="20" as="geometry" />
        </mxCell>
        <mxCell id="D5EDKLbeiEwIny6HZ1ge-84" value="process 2" style="rounded=0;whiteSpace=wrap;html=1;" vertex="1" parent="D5EDKLbeiEwIny6HZ1ge-94">
          <mxGeometry x="20" y="50" width="120" height="20" as="geometry" />
        </mxCell>
        <mxCell id="D5EDKLbeiEwIny6HZ1ge-85" value="process N" style="rounded=0;whiteSpace=wrap;html=1;" vertex="1" parent="D5EDKLbeiEwIny6HZ1ge-94">
          <mxGeometry x="20" y="80" width="120" height="20" as="geometry" />
        </mxCell>
        <mxCell id="D5EDKLbeiEwIny6HZ1ge-86" value="port: 8080" style="rounded=1;whiteSpace=wrap;html=1;" vertex="1" parent="D5EDKLbeiEwIny6HZ1ge-94">
          <mxGeometry x="320" y="15" width="80" height="30" as="geometry" />
        </mxCell>
        <mxCell id="D5EDKLbeiEwIny6HZ1ge-87" value="port: 3000" style="rounded=1;whiteSpace=wrap;html=1;" vertex="1" parent="D5EDKLbeiEwIny6HZ1ge-94">
          <mxGeometry x="320" y="45" width="80" height="30" as="geometry" />
        </mxCell>
        <mxCell id="D5EDKLbeiEwIny6HZ1ge-88" value="port: 8000" style="rounded=1;whiteSpace=wrap;html=1;" vertex="1" parent="D5EDKLbeiEwIny6HZ1ge-94">
          <mxGeometry x="320" y="75" width="80" height="30" as="geometry" />
        </mxCell>
        <mxCell id="D5EDKLbeiEwIny6HZ1ge-89" value="" style="endArrow=classic;startArrow=classic;html=1;rounded=0;exitX=1;exitY=0.5;exitDx=0;exitDy=0;entryX=0;entryY=0.5;entryDx=0;entryDy=0;" edge="1" parent="D5EDKLbeiEwIny6HZ1ge-94" source="D5EDKLbeiEwIny6HZ1ge-83" target="D5EDKLbeiEwIny6HZ1ge-86">
          <mxGeometry width="50" height="50" relative="1" as="geometry">
            <mxPoint x="250" y="-30" as="sourcePoint" />
            <mxPoint x="300" y="-80" as="targetPoint" />
          </mxGeometry>
        </mxCell>
        <mxCell id="D5EDKLbeiEwIny6HZ1ge-90" value="" style="endArrow=classic;startArrow=classic;html=1;rounded=0;exitX=1;exitY=0.5;exitDx=0;exitDy=0;entryX=0;entryY=0.5;entryDx=0;entryDy=0;" edge="1" parent="D5EDKLbeiEwIny6HZ1ge-94" source="D5EDKLbeiEwIny6HZ1ge-84" target="D5EDKLbeiEwIny6HZ1ge-87">
          <mxGeometry width="50" height="50" relative="1" as="geometry">
            <mxPoint x="150" y="40" as="sourcePoint" />
            <mxPoint x="240" y="40" as="targetPoint" />
          </mxGeometry>
        </mxCell>
        <mxCell id="D5EDKLbeiEwIny6HZ1ge-91" value="" style="endArrow=classic;startArrow=classic;html=1;rounded=0;exitX=1;exitY=0.5;exitDx=0;exitDy=0;entryX=0;entryY=0.5;entryDx=0;entryDy=0;" edge="1" parent="D5EDKLbeiEwIny6HZ1ge-94" source="D5EDKLbeiEwIny6HZ1ge-85" target="D5EDKLbeiEwIny6HZ1ge-88">
          <mxGeometry width="50" height="50" relative="1" as="geometry">
            <mxPoint x="150" y="70" as="sourcePoint" />
            <mxPoint x="240" y="70" as="targetPoint" />
          </mxGeometry>
        </mxCell>
        <mxCell id="D5EDKLbeiEwIny6HZ1ge-92" value="port: 8081" style="rounded=1;whiteSpace=wrap;html=1;" vertex="1" parent="D5EDKLbeiEwIny6HZ1ge-94">
          <mxGeometry x="320" y="242.5" width="80" height="30" as="geometry" />
        </mxCell>
        <mxCell id="D5EDKLbeiEwIny6HZ1ge-93" value="" style="endArrow=classic;startArrow=classic;html=1;rounded=0;exitX=1;exitY=0.5;exitDx=0;exitDy=0;entryX=0;entryY=0.5;entryDx=0;entryDy=0;" edge="1" parent="D5EDKLbeiEwIny6HZ1ge-94" source="D5EDKLbeiEwIny6HZ1ge-80" target="D5EDKLbeiEwIny6HZ1ge-92">
          <mxGeometry width="50" height="50" relative="1" as="geometry">
            <mxPoint x="460" y="230" as="sourcePoint" />
            <mxPoint x="510" y="180" as="targetPoint" />
          </mxGeometry>
        </mxCell>
        <mxCell id="D5EDKLbeiEwIny6HZ1ge-95" value="producer" style="ellipse;whiteSpace=wrap;html=1;aspect=fixed;fillColor=#dae8fc;strokeColor=#6c8ebf;" vertex="1" parent="1">
          <mxGeometry x="1480" y="120" width="80" height="80" as="geometry" />
        </mxCell>
        <mxCell id="D5EDKLbeiEwIny6HZ1ge-96" value="consumer" style="ellipse;whiteSpace=wrap;html=1;aspect=fixed;fillColor=#ffe6cc;strokeColor=#d79b00;" vertex="1" parent="1">
          <mxGeometry x="1490" y="335" width="80" height="80" as="geometry" />
        </mxCell>
        <mxCell id="D5EDKLbeiEwIny6HZ1ge-98" value="RabbitMQ" style="text;html=1;align=center;verticalAlign=middle;whiteSpace=wrap;rounded=0;rotation=-90;" vertex="1" parent="1">
          <mxGeometry x="850" y="250" width="100" height="30" as="geometry" />
        </mxCell>
        <mxCell id="D5EDKLbeiEwIny6HZ1ge-99" value="producer" style="ellipse;whiteSpace=wrap;html=1;aspect=fixed;fillColor=#dae8fc;strokeColor=#6c8ebf;" vertex="1" parent="1">
          <mxGeometry x="1170" y="120" width="80" height="80" as="geometry" />
        </mxCell>
        <mxCell id="D5EDKLbeiEwIny6HZ1ge-100" value="producer" style="ellipse;whiteSpace=wrap;html=1;aspect=fixed;fillColor=#dae8fc;strokeColor=#6c8ebf;" vertex="1" parent="1">
          <mxGeometry x="1285" y="120" width="80" height="80" as="geometry" />
        </mxCell>
        <mxCell id="D5EDKLbeiEwIny6HZ1ge-101" value="consumer" style="ellipse;whiteSpace=wrap;html=1;aspect=fixed;fillColor=#ffe6cc;strokeColor=#d79b00;" vertex="1" parent="1">
          <mxGeometry x="1380" y="335" width="80" height="80" as="geometry" />
        </mxCell>
        <mxCell id="D5EDKLbeiEwIny6HZ1ge-102" value="consumer" style="ellipse;whiteSpace=wrap;html=1;aspect=fixed;fillColor=#ffe6cc;strokeColor=#d79b00;" vertex="1" parent="1">
          <mxGeometry x="1275" y="335" width="80" height="80" as="geometry" />
        </mxCell>
        <mxCell id="D5EDKLbeiEwIny6HZ1ge-103" value="consumer" style="ellipse;whiteSpace=wrap;html=1;aspect=fixed;fillColor=#e1d5e7;strokeColor=#9673a6;" vertex="1" parent="1">
          <mxGeometry x="1170" y="325" width="80" height="80" as="geometry" />
        </mxCell>
        <mxCell id="D5EDKLbeiEwIny6HZ1ge-104" value="consumer" style="ellipse;whiteSpace=wrap;html=1;aspect=fixed;fillColor=#e1d5e7;strokeColor=#9673a6;" vertex="1" parent="1">
          <mxGeometry x="1060" y="325" width="80" height="80" as="geometry" />
        </mxCell>
        <mxCell id="D5EDKLbeiEwIny6HZ1ge-105" value="consumer" style="ellipse;whiteSpace=wrap;html=1;aspect=fixed;fillColor=#e1d5e7;strokeColor=#9673a6;" vertex="1" parent="1">
          <mxGeometry x="950" y="325" width="80" height="80" as="geometry" />
        </mxCell>
        <mxCell id="D5EDKLbeiEwIny6HZ1ge-106" value="producer" style="ellipse;whiteSpace=wrap;html=1;aspect=fixed;fillColor=#dae8fc;strokeColor=#6c8ebf;" vertex="1" parent="1">
          <mxGeometry x="1060" y="120" width="80" height="80" as="geometry" />
        </mxCell>
        <mxCell id="D5EDKLbeiEwIny6HZ1ge-107" value="producer" style="ellipse;whiteSpace=wrap;html=1;aspect=fixed;fillColor=#dae8fc;strokeColor=#6c8ebf;" vertex="1" parent="1">
          <mxGeometry x="950" y="120" width="80" height="80" as="geometry" />
        </mxCell>
        <mxCell id="D5EDKLbeiEwIny6HZ1ge-108" value="producer" style="ellipse;whiteSpace=wrap;html=1;aspect=fixed;fillColor=#dae8fc;strokeColor=#6c8ebf;" vertex="1" parent="1">
          <mxGeometry x="1380" y="120" width="80" height="80" as="geometry" />
        </mxCell>
        <mxCell id="D5EDKLbeiEwIny6HZ1ge-109" value="&lt;font style=&quot;font-size: 15px;&quot;&gt;Topic A&lt;/font&gt;" style="rounded=1;whiteSpace=wrap;html=1;" vertex="1" parent="1">
          <mxGeometry x="1470" y="250" width="100" height="30" as="geometry" />
        </mxCell>
        <mxCell id="D5EDKLbeiEwIny6HZ1ge-110" value="&lt;font style=&quot;font-size: 15px;&quot;&gt;TopicB&lt;/font&gt;" style="rounded=1;whiteSpace=wrap;html=1;" vertex="1" parent="1">
          <mxGeometry x="1275" y="250" width="100" height="30" as="geometry" />
        </mxCell>
        <mxCell id="D5EDKLbeiEwIny6HZ1ge-111" value="&lt;font style=&quot;font-size: 15px;&quot;&gt;Queue A&lt;/font&gt;" style="rounded=1;whiteSpace=wrap;html=1;" vertex="1" parent="1">
          <mxGeometry x="1160" y="250" width="100" height="30" as="geometry" />
        </mxCell>
        <mxCell id="D5EDKLbeiEwIny6HZ1ge-112" value="&lt;font style=&quot;font-size: 15px;&quot;&gt;Queue B&lt;/font&gt;" style="rounded=1;whiteSpace=wrap;html=1;" vertex="1" parent="1">
          <mxGeometry x="1050" y="250" width="100" height="30" as="geometry" />
        </mxCell>
        <mxCell id="D5EDKLbeiEwIny6HZ1ge-113" value="&lt;font style=&quot;font-size: 15px;&quot;&gt;Queue C&lt;/font&gt;" style="rounded=1;whiteSpace=wrap;html=1;" vertex="1" parent="1">
          <mxGeometry x="940" y="250" width="100" height="30" as="geometry" />
        </mxCell>
        <mxCell id="D5EDKLbeiEwIny6HZ1ge-114" value="" style="endArrow=classic;html=1;rounded=0;exitX=0.5;exitY=1;exitDx=0;exitDy=0;entryX=0.5;entryY=0;entryDx=0;entryDy=0;" edge="1" parent="1" source="D5EDKLbeiEwIny6HZ1ge-109" target="D5EDKLbeiEwIny6HZ1ge-96">
          <mxGeometry width="50" height="50" relative="1" as="geometry">
            <mxPoint x="1240" y="290" as="sourcePoint" />
            <mxPoint x="1290" y="240" as="targetPoint" />
          </mxGeometry>
        </mxCell>
        <mxCell id="D5EDKLbeiEwIny6HZ1ge-115" value="" style="endArrow=classic;html=1;rounded=0;exitX=0.5;exitY=1;exitDx=0;exitDy=0;entryX=0.5;entryY=0;entryDx=0;entryDy=0;" edge="1" parent="1" source="D5EDKLbeiEwIny6HZ1ge-109" target="D5EDKLbeiEwIny6HZ1ge-101">
          <mxGeometry width="50" height="50" relative="1" as="geometry">
            <mxPoint x="1200" y="280" as="sourcePoint" />
            <mxPoint x="1590" y="230" as="targetPoint" />
          </mxGeometry>
        </mxCell>
        <mxCell id="D5EDKLbeiEwIny6HZ1ge-116" value="" style="endArrow=classic;html=1;rounded=0;exitX=0.5;exitY=1;exitDx=0;exitDy=0;entryX=0.5;entryY=0;entryDx=0;entryDy=0;" edge="1" parent="1" source="D5EDKLbeiEwIny6HZ1ge-110" target="D5EDKLbeiEwIny6HZ1ge-101">
          <mxGeometry width="50" height="50" relative="1" as="geometry">
            <mxPoint x="1200" y="280" as="sourcePoint" />
            <mxPoint x="1590" y="320" as="targetPoint" />
          </mxGeometry>
        </mxCell>
        <mxCell id="D5EDKLbeiEwIny6HZ1ge-117" value="" style="endArrow=classic;html=1;rounded=0;exitX=0.5;exitY=1;exitDx=0;exitDy=0;entryX=0.5;entryY=0;entryDx=0;entryDy=0;" edge="1" parent="1" source="D5EDKLbeiEwIny6HZ1ge-109" target="D5EDKLbeiEwIny6HZ1ge-102">
          <mxGeometry width="50" height="50" relative="1" as="geometry">
            <mxPoint x="1200" y="345" as="sourcePoint" />
            <mxPoint x="1590" y="320" as="targetPoint" />
          </mxGeometry>
        </mxCell>
        <mxCell id="D5EDKLbeiEwIny6HZ1ge-118" value="" style="endArrow=classic;html=1;rounded=0;exitX=0.5;exitY=1;exitDx=0;exitDy=0;entryX=0.5;entryY=0;entryDx=0;entryDy=0;" edge="1" parent="1" source="D5EDKLbeiEwIny6HZ1ge-110" target="D5EDKLbeiEwIny6HZ1ge-102">
          <mxGeometry width="50" height="50" relative="1" as="geometry">
            <mxPoint x="1200" y="345" as="sourcePoint" />
            <mxPoint x="1590" y="320" as="targetPoint" />
          </mxGeometry>
        </mxCell>
        <mxCell id="D5EDKLbeiEwIny6HZ1ge-119" value="" style="endArrow=classic;html=1;rounded=0;exitX=0.5;exitY=1;exitDx=0;exitDy=0;entryX=0.5;entryY=0;entryDx=0;entryDy=0;" edge="1" parent="1" source="D5EDKLbeiEwIny6HZ1ge-112" target="D5EDKLbeiEwIny6HZ1ge-104">
          <mxGeometry width="50" height="50" relative="1" as="geometry">
            <mxPoint x="1100" y="590" as="sourcePoint" />
            <mxPoint x="1150" y="540" as="targetPoint" />
          </mxGeometry>
        </mxCell>
        <mxCell id="D5EDKLbeiEwIny6HZ1ge-121" value="" style="endArrow=classic;html=1;rounded=0;exitX=0.5;exitY=1;exitDx=0;exitDy=0;entryX=0.5;entryY=0;entryDx=0;entryDy=0;" edge="1" parent="1" source="D5EDKLbeiEwIny6HZ1ge-113" target="D5EDKLbeiEwIny6HZ1ge-105">
          <mxGeometry width="50" height="50" relative="1" as="geometry">
            <mxPoint x="880" y="300" as="sourcePoint" />
            <mxPoint x="930" y="250" as="targetPoint" />
          </mxGeometry>
        </mxCell>
        <mxCell id="D5EDKLbeiEwIny6HZ1ge-122" value="" style="endArrow=classic;html=1;rounded=0;exitX=0.5;exitY=1;exitDx=0;exitDy=0;entryX=0.5;entryY=0;entryDx=0;entryDy=0;" edge="1" parent="1" source="D5EDKLbeiEwIny6HZ1ge-113" target="D5EDKLbeiEwIny6HZ1ge-104">
          <mxGeometry width="50" height="50" relative="1" as="geometry">
            <mxPoint x="1000" y="290" as="sourcePoint" />
            <mxPoint x="910" y="320" as="targetPoint" />
            <Array as="points" />
          </mxGeometry>
        </mxCell>
        <mxCell id="D5EDKLbeiEwIny6HZ1ge-123" value="" style="endArrow=classic;html=1;rounded=0;exitX=0.5;exitY=1;exitDx=0;exitDy=0;entryX=0.5;entryY=0;entryDx=0;entryDy=0;" edge="1" parent="1" source="D5EDKLbeiEwIny6HZ1ge-111" target="D5EDKLbeiEwIny6HZ1ge-104">
          <mxGeometry width="50" height="50" relative="1" as="geometry">
            <mxPoint x="1110" y="290" as="sourcePoint" />
            <mxPoint x="1100" y="370" as="targetPoint" />
          </mxGeometry>
        </mxCell>
        <mxCell id="D5EDKLbeiEwIny6HZ1ge-124" value="" style="endArrow=classic;html=1;rounded=0;exitX=0.5;exitY=1;exitDx=0;exitDy=0;entryX=0.5;entryY=0;entryDx=0;entryDy=0;" edge="1" parent="1" source="D5EDKLbeiEwIny6HZ1ge-111" target="D5EDKLbeiEwIny6HZ1ge-103">
          <mxGeometry width="50" height="50" relative="1" as="geometry">
            <mxPoint x="1220" y="290" as="sourcePoint" />
            <mxPoint x="1110" y="380" as="targetPoint" />
          </mxGeometry>
        </mxCell>
        <mxCell id="D5EDKLbeiEwIny6HZ1ge-126" value="" style="endArrow=classic;html=1;rounded=0;exitX=0.5;exitY=1;exitDx=0;exitDy=0;entryX=0.5;entryY=0;entryDx=0;entryDy=0;" edge="1" parent="1" source="D5EDKLbeiEwIny6HZ1ge-95" target="D5EDKLbeiEwIny6HZ1ge-109">
          <mxGeometry width="50" height="50" relative="1" as="geometry">
            <mxPoint x="1610" y="180" as="sourcePoint" />
            <mxPoint x="1660" y="130" as="targetPoint" />
          </mxGeometry>
        </mxCell>
        <mxCell id="D5EDKLbeiEwIny6HZ1ge-127" value="" style="endArrow=classic;html=1;rounded=0;exitX=0.5;exitY=1;exitDx=0;exitDy=0;entryX=0.5;entryY=0;entryDx=0;entryDy=0;" edge="1" parent="1" source="D5EDKLbeiEwIny6HZ1ge-106" target="D5EDKLbeiEwIny6HZ1ge-112">
          <mxGeometry width="50" height="50" relative="1" as="geometry">
            <mxPoint x="1090" y="200" as="sourcePoint" />
            <mxPoint x="1140" y="150" as="targetPoint" />
          </mxGeometry>
        </mxCell>
        <mxCell id="D5EDKLbeiEwIny6HZ1ge-128" value="" style="endArrow=classic;html=1;rounded=0;exitX=0.5;exitY=1;exitDx=0;exitDy=0;entryX=0.5;entryY=0;entryDx=0;entryDy=0;" edge="1" parent="1" source="D5EDKLbeiEwIny6HZ1ge-99" target="D5EDKLbeiEwIny6HZ1ge-111">
          <mxGeometry width="50" height="50" relative="1" as="geometry">
            <mxPoint x="1220" y="220" as="sourcePoint" />
            <mxPoint x="1270" y="170" as="targetPoint" />
          </mxGeometry>
        </mxCell>
        <mxCell id="D5EDKLbeiEwIny6HZ1ge-129" value="" style="endArrow=classic;html=1;rounded=0;entryX=0.5;entryY=0;entryDx=0;entryDy=0;exitX=0.5;exitY=1;exitDx=0;exitDy=0;" edge="1" parent="1" source="D5EDKLbeiEwIny6HZ1ge-100" target="D5EDKLbeiEwIny6HZ1ge-110">
          <mxGeometry width="50" height="50" relative="1" as="geometry">
            <mxPoint x="1290" y="170" as="sourcePoint" />
            <mxPoint x="1410" y="160" as="targetPoint" />
          </mxGeometry>
        </mxCell>
        <mxCell id="D5EDKLbeiEwIny6HZ1ge-130" value="" style="endArrow=classic;html=1;rounded=0;exitX=0.5;exitY=1;exitDx=0;exitDy=0;entryX=0.5;entryY=0;entryDx=0;entryDy=0;" edge="1" parent="1" source="D5EDKLbeiEwIny6HZ1ge-108" target="D5EDKLbeiEwIny6HZ1ge-110">
          <mxGeometry width="50" height="50" relative="1" as="geometry">
            <mxPoint x="1390" y="220" as="sourcePoint" />
            <mxPoint x="1440" y="170" as="targetPoint" />
          </mxGeometry>
        </mxCell>
        <mxCell id="D5EDKLbeiEwIny6HZ1ge-131" value="" style="endArrow=classic;html=1;rounded=0;exitX=0.5;exitY=1;exitDx=0;exitDy=0;entryX=0.5;entryY=0;entryDx=0;entryDy=0;" edge="1" parent="1" source="D5EDKLbeiEwIny6HZ1ge-108" target="D5EDKLbeiEwIny6HZ1ge-109">
          <mxGeometry width="50" height="50" relative="1" as="geometry">
            <mxPoint x="1430" y="230" as="sourcePoint" />
            <mxPoint x="1480" y="180" as="targetPoint" />
          </mxGeometry>
        </mxCell>
        <mxCell id="D5EDKLbeiEwIny6HZ1ge-132" value="" style="endArrow=classic;html=1;rounded=0;exitX=0.5;exitY=1;exitDx=0;exitDy=0;entryX=0.5;entryY=0;entryDx=0;entryDy=0;" edge="1" parent="1" source="D5EDKLbeiEwIny6HZ1ge-107" target="D5EDKLbeiEwIny6HZ1ge-112">
          <mxGeometry width="50" height="50" relative="1" as="geometry">
            <mxPoint x="1020" y="240" as="sourcePoint" />
            <mxPoint x="1070" y="190" as="targetPoint" />
          </mxGeometry>
        </mxCell>
        <mxCell id="D5EDKLbeiEwIny6HZ1ge-133" value="" style="endArrow=classic;html=1;rounded=0;exitX=0.5;exitY=1;exitDx=0;exitDy=0;entryX=0.5;entryY=0;entryDx=0;entryDy=0;" edge="1" parent="1" source="D5EDKLbeiEwIny6HZ1ge-99" target="D5EDKLbeiEwIny6HZ1ge-110">
          <mxGeometry width="50" height="50" relative="1" as="geometry">
            <mxPoint x="1110" y="190" as="sourcePoint" />
            <mxPoint x="1160" y="140" as="targetPoint" />
          </mxGeometry>
        </mxCell>
        <mxCell id="D5EDKLbeiEwIny6HZ1ge-137" value="" style="endArrow=classic;html=1;rounded=0;exitX=0.5;exitY=1;exitDx=0;exitDy=0;entryX=0.5;entryY=0;entryDx=0;entryDy=0;" edge="1" parent="1" source="D5EDKLbeiEwIny6HZ1ge-107" target="D5EDKLbeiEwIny6HZ1ge-113">
          <mxGeometry width="50" height="50" relative="1" as="geometry">
            <mxPoint x="990" y="140" as="sourcePoint" />
            <mxPoint x="960" y="200" as="targetPoint" />
          </mxGeometry>
        </mxCell>
        <mxCell id="D5EDKLbeiEwIny6HZ1ge-139" value="producer" style="ellipse;whiteSpace=wrap;html=1;aspect=fixed;fillColor=#dae8fc;strokeColor=#6c8ebf;" vertex="1" parent="1">
          <mxGeometry x="1015" y="430" width="80" height="80" as="geometry" />
        </mxCell>
        <mxCell id="D5EDKLbeiEwIny6HZ1ge-140" value="consumer" style="ellipse;whiteSpace=wrap;html=1;aspect=fixed;fillColor=#ffe6cc;strokeColor=#d79b00;" vertex="1" parent="1">
          <mxGeometry x="1110" y="680" width="80" height="80" as="geometry" />
        </mxCell>
        <mxCell id="D5EDKLbeiEwIny6HZ1ge-141" value="consumer" style="ellipse;whiteSpace=wrap;html=1;aspect=fixed;fillColor=#ffe6cc;strokeColor=#d79b00;" vertex="1" parent="1">
          <mxGeometry x="920" y="680" width="80" height="80" as="geometry" />
        </mxCell>
        <mxCell id="D5EDKLbeiEwIny6HZ1ge-142" value="&lt;font style=&quot;font-size: 15px;&quot;&gt;Topic A&lt;/font&gt;" style="rounded=1;whiteSpace=wrap;html=1;" vertex="1" parent="1">
          <mxGeometry x="1005" y="570" width="100" height="30" as="geometry" />
        </mxCell>
        <mxCell id="D5EDKLbeiEwIny6HZ1ge-146" value="" style="endArrow=classic;html=1;rounded=0;exitX=0.5;exitY=1;exitDx=0;exitDy=0;entryX=0.5;entryY=0;entryDx=0;entryDy=0;" edge="1" parent="1" source="D5EDKLbeiEwIny6HZ1ge-139" target="D5EDKLbeiEwIny6HZ1ge-142">
          <mxGeometry width="50" height="50" relative="1" as="geometry">
            <mxPoint x="1070" y="540" as="sourcePoint" />
            <mxPoint x="1120" y="490" as="targetPoint" />
          </mxGeometry>
        </mxCell>
        <mxCell id="D5EDKLbeiEwIny6HZ1ge-147" value="DATA" style="rounded=0;whiteSpace=wrap;html=1;" vertex="1" parent="1">
          <mxGeometry x="1035" y="520" width="40" height="22" as="geometry" />
        </mxCell>
        <mxCell id="D5EDKLbeiEwIny6HZ1ge-150" value="" style="endArrow=classic;html=1;rounded=0;exitX=0.5;exitY=1;exitDx=0;exitDy=0;entryX=0.5;entryY=0;entryDx=0;entryDy=0;" edge="1" parent="1" source="D5EDKLbeiEwIny6HZ1ge-142" target="D5EDKLbeiEwIny6HZ1ge-141">
          <mxGeometry width="50" height="50" relative="1" as="geometry">
            <mxPoint x="1020" y="710" as="sourcePoint" />
            <mxPoint x="1070" y="660" as="targetPoint" />
            <Array as="points">
              <mxPoint x="1055" y="630" />
              <mxPoint x="960" y="630" />
            </Array>
          </mxGeometry>
        </mxCell>
        <mxCell id="D5EDKLbeiEwIny6HZ1ge-151" value="" style="endArrow=classic;html=1;rounded=0;exitX=0.5;exitY=1;exitDx=0;exitDy=0;entryX=0.5;entryY=0;entryDx=0;entryDy=0;" edge="1" parent="1" source="D5EDKLbeiEwIny6HZ1ge-142" target="D5EDKLbeiEwIny6HZ1ge-140">
          <mxGeometry width="50" height="50" relative="1" as="geometry">
            <mxPoint x="1050" y="690" as="sourcePoint" />
            <mxPoint x="1100" y="640" as="targetPoint" />
            <Array as="points">
              <mxPoint x="1055" y="630" />
              <mxPoint x="1150" y="630" />
            </Array>
          </mxGeometry>
        </mxCell>
        <mxCell id="D5EDKLbeiEwIny6HZ1ge-152" value="DATA" style="rounded=0;whiteSpace=wrap;html=1;" vertex="1" parent="1">
          <mxGeometry x="940" y="640" width="40" height="22" as="geometry" />
        </mxCell>
        <mxCell id="D5EDKLbeiEwIny6HZ1ge-153" value="DATA" style="rounded=0;whiteSpace=wrap;html=1;" vertex="1" parent="1">
          <mxGeometry x="1130" y="640" width="40" height="22" as="geometry" />
        </mxCell>
        <mxCell id="D5EDKLbeiEwIny6HZ1ge-154" value="" style="rounded=1;whiteSpace=wrap;html=1;" vertex="1" parent="1">
          <mxGeometry x="1355" y="610" width="130" height="60" as="geometry" />
        </mxCell>
        <mxCell id="D5EDKLbeiEwIny6HZ1ge-155" value="RabbitMQ" style="text;html=1;align=center;verticalAlign=middle;whiteSpace=wrap;rounded=0;rotation=-90;" vertex="1" parent="1">
          <mxGeometry x="1295" y="625" width="100" height="30" as="geometry" />
        </mxCell>
        <mxCell id="D5EDKLbeiEwIny6HZ1ge-156" value="producer" style="ellipse;whiteSpace=wrap;html=1;aspect=fixed;fillColor=#dae8fc;strokeColor=#6c8ebf;" vertex="1" parent="1">
          <mxGeometry x="1380" y="440" width="80" height="80" as="geometry" />
        </mxCell>
        <mxCell id="D5EDKLbeiEwIny6HZ1ge-157" value="consumer" style="ellipse;whiteSpace=wrap;html=1;aspect=fixed;fillColor=#ffe6cc;strokeColor=#d79b00;" vertex="1" parent="1">
          <mxGeometry x="1475" y="735" width="80" height="80" as="geometry" />
        </mxCell>
        <mxCell id="D5EDKLbeiEwIny6HZ1ge-158" value="consumer" style="ellipse;whiteSpace=wrap;html=1;aspect=fixed;fillColor=#ffe6cc;strokeColor=#d79b00;" vertex="1" parent="1">
          <mxGeometry x="1285" y="735" width="80" height="80" as="geometry" />
        </mxCell>
        <mxCell id="D5EDKLbeiEwIny6HZ1ge-159" value="&lt;font style=&quot;font-size: 15px;&quot;&gt;Queue A&lt;/font&gt;" style="rounded=1;whiteSpace=wrap;html=1;" vertex="1" parent="1">
          <mxGeometry x="1370" y="625" width="100" height="30" as="geometry" />
        </mxCell>
        <mxCell id="D5EDKLbeiEwIny6HZ1ge-160" value="" style="endArrow=classic;html=1;rounded=0;exitX=0.5;exitY=1;exitDx=0;exitDy=0;entryX=0.5;entryY=0;entryDx=0;entryDy=0;" edge="1" parent="1" source="D5EDKLbeiEwIny6HZ1ge-156" target="D5EDKLbeiEwIny6HZ1ge-159">
          <mxGeometry width="50" height="50" relative="1" as="geometry">
            <mxPoint x="1435" y="500" as="sourcePoint" />
            <mxPoint x="1485" y="450" as="targetPoint" />
          </mxGeometry>
        </mxCell>
        <mxCell id="D5EDKLbeiEwIny6HZ1ge-162" value="" style="endArrow=classic;html=1;rounded=0;exitX=0.5;exitY=1;exitDx=0;exitDy=0;entryX=0.5;entryY=0;entryDx=0;entryDy=0;" edge="1" parent="1" source="D5EDKLbeiEwIny6HZ1ge-159" target="D5EDKLbeiEwIny6HZ1ge-158">
          <mxGeometry width="50" height="50" relative="1" as="geometry">
            <mxPoint x="1385" y="765" as="sourcePoint" />
            <mxPoint x="1435" y="715" as="targetPoint" />
            <Array as="points">
              <mxPoint x="1420" y="685" />
              <mxPoint x="1325" y="685" />
            </Array>
          </mxGeometry>
        </mxCell>
        <mxCell id="D5EDKLbeiEwIny6HZ1ge-163" value="" style="endArrow=classic;html=1;rounded=0;exitX=0.5;exitY=1;exitDx=0;exitDy=0;entryX=0.5;entryY=0;entryDx=0;entryDy=0;" edge="1" parent="1" source="D5EDKLbeiEwIny6HZ1ge-159" target="D5EDKLbeiEwIny6HZ1ge-157">
          <mxGeometry width="50" height="50" relative="1" as="geometry">
            <mxPoint x="1415" y="745" as="sourcePoint" />
            <mxPoint x="1465" y="695" as="targetPoint" />
            <Array as="points">
              <mxPoint x="1420" y="685" />
              <mxPoint x="1515" y="685" />
            </Array>
          </mxGeometry>
        </mxCell>
        <mxCell id="D5EDKLbeiEwIny6HZ1ge-164" value="DATA 1" style="rounded=0;whiteSpace=wrap;html=1;" vertex="1" parent="1">
          <mxGeometry x="1300" y="695" width="50" height="22" as="geometry" />
        </mxCell>
        <mxCell id="D5EDKLbeiEwIny6HZ1ge-165" value="DATA 2" style="rounded=0;whiteSpace=wrap;html=1;" vertex="1" parent="1">
          <mxGeometry x="1490" y="695" width="50" height="22" as="geometry" />
        </mxCell>
        <mxCell id="D5EDKLbeiEwIny6HZ1ge-161" value="DATA 1" style="rounded=0;whiteSpace=wrap;html=1;" vertex="1" parent="1">
          <mxGeometry x="1397.5" y="538" width="45" height="22" as="geometry" />
        </mxCell>
        <mxCell id="D5EDKLbeiEwIny6HZ1ge-167" value="DATA 2" style="rounded=0;whiteSpace=wrap;html=1;" vertex="1" parent="1">
          <mxGeometry x="1397.5" y="578" width="45" height="22" as="geometry" />
        </mxCell>
        <mxCell id="KpPde_JiOYbOcacjsDQG-1" value="users" style="swimlane;fontStyle=0;childLayout=stackLayout;horizontal=1;startSize=30;horizontalStack=0;resizeParent=1;resizeParentMax=0;resizeLast=0;collapsible=1;marginBottom=0;whiteSpace=wrap;html=1;" vertex="1" parent="1">
          <mxGeometry x="100" y="1130" width="140" height="210" as="geometry" />
        </mxCell>
        <mxCell id="KpPde_JiOYbOcacjsDQG-2" value="_id: ObjectId" style="text;strokeColor=none;fillColor=none;align=left;verticalAlign=middle;spacingLeft=4;spacingRight=4;overflow=hidden;points=[[0,0.5],[1,0.5]];portConstraint=eastwest;rotatable=0;whiteSpace=wrap;html=1;" vertex="1" parent="KpPde_JiOYbOcacjsDQG-1">
          <mxGeometry y="30" width="140" height="30" as="geometry" />
        </mxCell>
        <mxCell id="KpPde_JiOYbOcacjsDQG-3" value="telegramId: number" style="text;strokeColor=none;fillColor=none;align=left;verticalAlign=middle;spacingLeft=4;spacingRight=4;overflow=hidden;points=[[0,0.5],[1,0.5]];portConstraint=eastwest;rotatable=0;whiteSpace=wrap;html=1;" vertex="1" parent="KpPde_JiOYbOcacjsDQG-1">
          <mxGeometry y="60" width="140" height="30" as="geometry" />
        </mxCell>
        <mxCell id="KpPde_JiOYbOcacjsDQG-4" value="firstName: string" style="text;strokeColor=none;fillColor=none;align=left;verticalAlign=middle;spacingLeft=4;spacingRight=4;overflow=hidden;points=[[0,0.5],[1,0.5]];portConstraint=eastwest;rotatable=0;whiteSpace=wrap;html=1;" vertex="1" parent="KpPde_JiOYbOcacjsDQG-1">
          <mxGeometry y="90" width="140" height="30" as="geometry" />
        </mxCell>
        <mxCell id="KpPde_JiOYbOcacjsDQG-5" value="lastName: string" style="text;strokeColor=none;fillColor=none;align=left;verticalAlign=middle;spacingLeft=4;spacingRight=4;overflow=hidden;points=[[0,0.5],[1,0.5]];portConstraint=eastwest;rotatable=0;whiteSpace=wrap;html=1;" vertex="1" parent="KpPde_JiOYbOcacjsDQG-1">
          <mxGeometry y="120" width="140" height="30" as="geometry" />
        </mxCell>
        <mxCell id="KpPde_JiOYbOcacjsDQG-14" value="userName&lt;span style=&quot;background-color: initial;&quot;&gt;: string&lt;/span&gt;" style="text;strokeColor=none;fillColor=none;align=left;verticalAlign=middle;spacingLeft=4;spacingRight=4;overflow=hidden;points=[[0,0.5],[1,0.5]];portConstraint=eastwest;rotatable=0;whiteSpace=wrap;html=1;" vertex="1" parent="KpPde_JiOYbOcacjsDQG-1">
          <mxGeometry y="150" width="140" height="30" as="geometry" />
        </mxCell>
        <mxCell id="KpPde_JiOYbOcacjsDQG-11" value="links: ObjectId[]" style="text;strokeColor=none;fillColor=none;align=left;verticalAlign=middle;spacingLeft=4;spacingRight=4;overflow=hidden;points=[[0,0.5],[1,0.5]];portConstraint=eastwest;rotatable=0;whiteSpace=wrap;html=1;" vertex="1" parent="KpPde_JiOYbOcacjsDQG-1">
          <mxGeometry y="180" width="140" height="30" as="geometry" />
        </mxCell>
        <mxCell id="KpPde_JiOYbOcacjsDQG-6" value="urls" style="swimlane;fontStyle=0;childLayout=stackLayout;horizontal=1;startSize=30;horizontalStack=0;resizeParent=1;resizeParentMax=0;resizeLast=0;collapsible=1;marginBottom=0;whiteSpace=wrap;html=1;" vertex="1" parent="1">
          <mxGeometry x="320" y="1130" width="240" height="180" as="geometry" />
        </mxCell>
        <mxCell id="KpPde_JiOYbOcacjsDQG-7" value="_id: ObjectId" style="text;strokeColor=none;fillColor=none;align=left;verticalAlign=middle;spacingLeft=4;spacingRight=4;overflow=hidden;points=[[0,0.5],[1,0.5]];portConstraint=eastwest;rotatable=0;whiteSpace=wrap;html=1;" vertex="1" parent="KpPde_JiOYbOcacjsDQG-6">
          <mxGeometry y="30" width="240" height="30" as="geometry" />
        </mxCell>
        <mxCell id="KpPde_JiOYbOcacjsDQG-8" value="url: string" style="text;strokeColor=none;fillColor=none;align=left;verticalAlign=middle;spacingLeft=4;spacingRight=4;overflow=hidden;points=[[0,0.5],[1,0.5]];portConstraint=eastwest;rotatable=0;whiteSpace=wrap;html=1;" vertex="1" parent="KpPde_JiOYbOcacjsDQG-6">
          <mxGeometry y="60" width="240" height="30" as="geometry" />
        </mxCell>
        <mxCell id="KpPde_JiOYbOcacjsDQG-13" value="type: string" style="text;strokeColor=none;fillColor=none;align=left;verticalAlign=middle;spacingLeft=4;spacingRight=4;overflow=hidden;points=[[0,0.5],[1,0.5]];portConstraint=eastwest;rotatable=0;whiteSpace=wrap;html=1;" vertex="1" parent="KpPde_JiOYbOcacjsDQG-6">
          <mxGeometry y="90" width="240" height="30" as="geometry" />
        </mxCell>
        <mxCell id="KpPde_JiOYbOcacjsDQG-9" value="name: string" style="text;strokeColor=none;fillColor=none;align=left;verticalAlign=middle;spacingLeft=4;spacingRight=4;overflow=hidden;points=[[0,0.5],[1,0.5]];portConstraint=eastwest;rotatable=0;whiteSpace=wrap;html=1;" vertex="1" parent="KpPde_JiOYbOcacjsDQG-6">
          <mxGeometry y="120" width="240" height="30" as="geometry" />
        </mxCell>
        <mxCell id="KpPde_JiOYbOcacjsDQG-10" value="prices: { receivedAt: Date, price: number }[]" style="text;strokeColor=none;fillColor=none;align=left;verticalAlign=middle;spacingLeft=4;spacingRight=4;overflow=hidden;points=[[0,0.5],[1,0.5]];portConstraint=eastwest;rotatable=0;whiteSpace=wrap;html=1;" vertex="1" parent="KpPde_JiOYbOcacjsDQG-6">
          <mxGeometry y="150" width="240" height="30" as="geometry" />
        </mxCell>
        <mxCell id="KpPde_JiOYbOcacjsDQG-12" value="" style="endArrow=classic;startArrow=classic;html=1;rounded=0;exitX=1;exitY=0.5;exitDx=0;exitDy=0;entryX=0;entryY=0.5;entryDx=0;entryDy=0;" edge="1" parent="1" source="KpPde_JiOYbOcacjsDQG-11" target="KpPde_JiOYbOcacjsDQG-7">
          <mxGeometry width="50" height="50" relative="1" as="geometry">
            <mxPoint x="250" y="1300" as="sourcePoint" />
            <mxPoint x="300" y="1250" as="targetPoint" />
            <Array as="points">
              <mxPoint x="280" y="1325" />
              <mxPoint x="280" y="1175" />
            </Array>
          </mxGeometry>
        </mxCell>
        <mxCell id="XA_bsHwOPpOMYALUfZog-1" value="users" style="swimlane;fontStyle=0;childLayout=stackLayout;horizontal=1;startSize=30;horizontalStack=0;resizeParent=1;resizeParentMax=0;resizeLast=0;collapsible=1;marginBottom=0;whiteSpace=wrap;html=1;" vertex="1" parent="1">
          <mxGeometry x="155" y="1640" width="205" height="200" as="geometry" />
        </mxCell>
        <mxCell id="XA_bsHwOPpOMYALUfZog-2" value="_id: ObjectId" style="text;strokeColor=none;fillColor=none;align=left;verticalAlign=middle;spacingLeft=4;spacingRight=4;overflow=hidden;points=[[0,0.5],[1,0.5]];portConstraint=eastwest;rotatable=0;whiteSpace=wrap;html=1;" vertex="1" parent="XA_bsHwOPpOMYALUfZog-1">
          <mxGeometry y="30" width="205" height="30" as="geometry" />
        </mxCell>
        <mxCell id="XA_bsHwOPpOMYALUfZog-3" value="firstName: string" style="text;strokeColor=none;fillColor=none;align=left;verticalAlign=middle;spacingLeft=4;spacingRight=4;overflow=hidden;points=[[0,0.5],[1,0.5]];portConstraint=eastwest;rotatable=0;whiteSpace=wrap;html=1;" vertex="1" parent="XA_bsHwOPpOMYALUfZog-1">
          <mxGeometry y="60" width="205" height="30" as="geometry" />
        </mxCell>
        <mxCell id="XA_bsHwOPpOMYALUfZog-4" value="lastName: string" style="text;strokeColor=none;fillColor=none;align=left;verticalAlign=middle;spacingLeft=4;spacingRight=4;overflow=hidden;points=[[0,0.5],[1,0.5]];portConstraint=eastwest;rotatable=0;whiteSpace=wrap;html=1;" vertex="1" parent="XA_bsHwOPpOMYALUfZog-1">
          <mxGeometry y="90" width="205" height="30" as="geometry" />
        </mxCell>
        <mxCell id="XA_bsHwOPpOMYALUfZog-5" value="userName: string" style="text;strokeColor=none;fillColor=none;align=left;verticalAlign=middle;spacingLeft=4;spacingRight=4;overflow=hidden;points=[[0,0.5],[1,0.5]];portConstraint=eastwest;rotatable=0;whiteSpace=wrap;html=1;" vertex="1" parent="XA_bsHwOPpOMYALUfZog-1">
          <mxGeometry y="120" width="205" height="30" as="geometry" />
        </mxCell>
        <mxCell id="XA_bsHwOPpOMYALUfZog-6" value="telegramId: string" style="text;strokeColor=none;fillColor=none;align=left;verticalAlign=middle;spacingLeft=4;spacingRight=4;overflow=hidden;points=[[0,0.5],[1,0.5]];portConstraint=eastwest;rotatable=0;whiteSpace=wrap;html=1;" vertex="1" parent="XA_bsHwOPpOMYALUfZog-1">
          <mxGeometry y="150" width="205" height="30" as="geometry" />
        </mxCell>
        <mxCell id="XA_bsHwOPpOMYALUfZog-12" value="links: ObjectId[]" style="text;strokeColor=none;fillColor=none;align=left;verticalAlign=middle;spacingLeft=4;spacingRight=4;overflow=hidden;points=[[0,0.5],[1,0.5]];portConstraint=eastwest;rotatable=0;whiteSpace=wrap;html=1;" vertex="1" parent="XA_bsHwOPpOMYALUfZog-1">
          <mxGeometry y="180" width="205" height="20" as="geometry" />
        </mxCell>
        <mxCell id="XA_bsHwOPpOMYALUfZog-8" value="links" style="swimlane;fontStyle=0;childLayout=stackLayout;horizontal=1;startSize=30;horizontalStack=0;resizeParent=1;resizeParentMax=0;resizeLast=0;collapsible=1;marginBottom=0;whiteSpace=wrap;html=1;" vertex="1" parent="1">
          <mxGeometry x="440" y="1640" width="140" height="210" as="geometry" />
        </mxCell>
        <mxCell id="XA_bsHwOPpOMYALUfZog-9" value="_id: ObjectId" style="text;strokeColor=none;fillColor=none;align=left;verticalAlign=middle;spacingLeft=4;spacingRight=4;overflow=hidden;points=[[0,0.5],[1,0.5]];portConstraint=eastwest;rotatable=0;whiteSpace=wrap;html=1;" vertex="1" parent="XA_bsHwOPpOMYALUfZog-8">
          <mxGeometry y="30" width="140" height="30" as="geometry" />
        </mxCell>
        <mxCell id="XA_bsHwOPpOMYALUfZog-10" value="name: string" style="text;strokeColor=none;fillColor=none;align=left;verticalAlign=middle;spacingLeft=4;spacingRight=4;overflow=hidden;points=[[0,0.5],[1,0.5]];portConstraint=eastwest;rotatable=0;whiteSpace=wrap;html=1;" vertex="1" parent="XA_bsHwOPpOMYALUfZog-8">
          <mxGeometry y="60" width="140" height="30" as="geometry" />
        </mxCell>
        <mxCell id="XA_bsHwOPpOMYALUfZog-11" value="price: number" style="text;strokeColor=none;fillColor=none;align=left;verticalAlign=middle;spacingLeft=4;spacingRight=4;overflow=hidden;points=[[0,0.5],[1,0.5]];portConstraint=eastwest;rotatable=0;whiteSpace=wrap;html=1;" vertex="1" parent="XA_bsHwOPpOMYALUfZog-8">
          <mxGeometry y="90" width="140" height="30" as="geometry" />
        </mxCell>
        <mxCell id="XA_bsHwOPpOMYALUfZog-18" value="type: string" style="text;strokeColor=none;fillColor=none;align=left;verticalAlign=middle;spacingLeft=4;spacingRight=4;overflow=hidden;points=[[0,0.5],[1,0.5]];portConstraint=eastwest;rotatable=0;whiteSpace=wrap;html=1;" vertex="1" parent="XA_bsHwOPpOMYALUfZog-8">
          <mxGeometry y="120" width="140" height="30" as="geometry" />
        </mxCell>
        <mxCell id="XA_bsHwOPpOMYALUfZog-16" value="url: string" style="text;strokeColor=none;fillColor=none;align=left;verticalAlign=middle;spacingLeft=4;spacingRight=4;overflow=hidden;points=[[0,0.5],[1,0.5]];portConstraint=eastwest;rotatable=0;whiteSpace=wrap;html=1;" vertex="1" parent="XA_bsHwOPpOMYALUfZog-8">
          <mxGeometry y="150" width="140" height="30" as="geometry" />
        </mxCell>
        <mxCell id="XA_bsHwOPpOMYALUfZog-17" value="recievedAt: Date" style="text;strokeColor=none;fillColor=none;align=left;verticalAlign=middle;spacingLeft=4;spacingRight=4;overflow=hidden;points=[[0,0.5],[1,0.5]];portConstraint=eastwest;rotatable=0;whiteSpace=wrap;html=1;" vertex="1" parent="XA_bsHwOPpOMYALUfZog-8">
          <mxGeometry y="180" width="140" height="30" as="geometry" />
        </mxCell>
        <mxCell id="XA_bsHwOPpOMYALUfZog-13" value="" style="endArrow=classic;startArrow=classic;html=1;rounded=0;exitX=1;exitY=0.5;exitDx=0;exitDy=0;entryX=0;entryY=0.5;entryDx=0;entryDy=0;" edge="1" parent="1" source="XA_bsHwOPpOMYALUfZog-12" target="XA_bsHwOPpOMYALUfZog-9">
          <mxGeometry width="50" height="50" relative="1" as="geometry">
            <mxPoint x="400" y="1810" as="sourcePoint" />
            <mxPoint x="450" y="1760" as="targetPoint" />
            <Array as="points">
              <mxPoint x="400" y="1830" />
              <mxPoint x="400" y="1685" />
            </Array>
          </mxGeometry>
        </mxCell>
        <mxCell id="XA_bsHwOPpOMYALUfZog-14" value="N" style="edgeLabel;html=1;align=center;verticalAlign=middle;resizable=0;points=[];" connectable="0" vertex="1" parent="XA_bsHwOPpOMYALUfZog-13">
          <mxGeometry x="-0.866" relative="1" as="geometry">
            <mxPoint as="offset" />
          </mxGeometry>
        </mxCell>
        <mxCell id="XA_bsHwOPpOMYALUfZog-15" value="N" style="edgeLabel;html=1;align=center;verticalAlign=middle;resizable=0;points=[];" connectable="0" vertex="1" parent="XA_bsHwOPpOMYALUfZog-13">
          <mxGeometry x="0.8462" y="1" relative="1" as="geometry">
            <mxPoint as="offset" />
          </mxGeometry>
        </mxCell>
      </root>
    </mxGraphModel>
  </diagram>
</mxfile>
